<?xml version="1.0" encoding="UTF-8" standalone="no"?>
<!-- Created with Inkscape (http://www.inkscape.org/) -->

<svg
   width="47.183678"
   height="63.999996"
   viewBox="0 0 12.484015 16.933332"
   version="1.1"
   id="svg5"
   xmlns="http://www.w3.org/2000/svg"
   xmlns:svg="http://www.w3.org/2000/svg">
  <defs
     id="defs2" />
  <g
     id="layer1">
    <rect
       style="fill:#999999;stroke-width:0.529167"
       id="rect3"
       width="12.484015"
       height="16.933334"
       x="-2.220446e-16"
       y="0" />
    <rect
       style="fill:#666666;stroke-width:0.529167"
       id="rect4"
       width="8.4997396"
       height="0.90950525"
       x="1.9921379"
       y="1.3208497" />
    <rect
       style="fill:#666666;stroke-width:0.529167"
       id="rect7"
       width="8.4997396"
       height="0.90950525"
       x="1.9921379"
       y="12.472625" />
    <rect
       style="fill:#666666;stroke-width:0.529167"
       id="rect8"
       width="8.4997396"
       height="0.90950525"
       x="1.9921379"
       y="14.702979" />
    <rect
       style="fill:#666666;stroke-width:0.529167"
       id="rect9"
       width="8.4997396"
       height="0.90950525"
       x="1.9921379"
       y="3.5512047" />
    <rect
       style="fill:#666666;stroke-width:0.529167"
       id="rect10"
       width="8.4997396"
       height="0.90950525"
       x="1.9921379"
       y="5.7815595" />
    <rect
       style="fill:#666666;stroke-width:0.529167"
       id="rect11"
       width="8.4997396"
       height="0.90950525"
       x="1.9921379"
       y="8.0119143" />
    <rect
       style="fill:#666666;stroke-width:0.529167"
       id="rect12"
       width="8.4997396"
       height="0.90950525"
       x="1.9921379"
       y="10.24227" />
    <path
       id="path1"
       style="fill:#094bac;stroke-width:0.614882"
       d="m 5.4696306,3.2645864 a 4.4293947,4.4293947 0 0 0 -4.4297038,4.4291871 4.4293947,4.4293947 0 0 0 4.4297038,4.4297035 4.4293947,4.4293947 0 0 0 2.243274,-0.610299 l 1.9223633,1.922364 c 0.3109414,0.310941 0.8114711,0.310941 1.1224121,0 l 0.453202,-0.453203 c 0.310942,-0.310941 0.310942,-0.811987 0,-1.122928 L 9.2885191,9.9375643 A 4.4293947,4.4293947 0 0 0 9.8988177,7.6937735 4.4293947,4.4293947 0 0 0 5.4696306,3.2645864 Z m 0,1.6603638 a 2.7689829,2.7689829 0 0 1 2.7688233,2.7688233 2.7689829,2.7689829 0 0 1 -2.7688233,2.7693395 2.7689829,2.7689829 0 0 1 -2.76934,-2.7693395 2.7689829,2.7689829 0 0 1 2.76934,-2.7688233 z" />
  </g>
</svg>
